<?xml version="1.0" encoding="UTF-8"?>
<svg xmlns="http://www.w3.org/2000/svg" width="1024" height="1024" viewBox="0 0 1024 1024">
  <!-- White circle with grey stroke and transparent background -->
  <circle cx="512" cy="512" r="490" fill="#ffffff" stroke="#808080" stroke-width="10" />

  <!-- Your logo, centered and scaled -->
  <g transform="translate(0,1024) scale(0.1,-0.1)" fill="#0891B2" stroke="none">
    <path d="M4005 7174 c-142 -14 -372 -65 -520 -116 -163 -56 -427 -191 -535
    -275 -309 -238 -499 -456 -652 -744 -42 -79 -117 -262 -149 -365 -83 -272
    -104 -619 -53 -923 65 -393 250 -762 522 -1038 122 -124 180 -173 313 -261
    272 -181 564 -287 864 -313 321 -28 607 23 883 158 459 224 757 598 864 1080
    29 133 32 444 5 573 -40 190 -136 416 -243 567 -67 94 -244 269 -334 330 -133
    89 -288 158 -439 195 -109 26 -361 36 -465 18 -288 -50 -525 -174 -686 -357
    -30 -35 -60 -69 -67 -77 -60 -69 -138 -235 -174 -372 -20 -76 -24 -114 -24
    -254 0 -142 3 -178 24 -255 62 -240 225 -447 436 -553 239 -121 507 -123 738
    -5 71 37 101 60 165 129 121 128 162 228 170 405 4 104 2 124 -22 200 -60 196
    -200 323 -386 349 -71 10 -161 -5 -225 -36 -58 -30 -128 -99 -143 -143 -12
    -33 -3 -41 19 -15 7 8 33 26 58 39 253 127 518 -68 498 -366 -15 -220 -204
    -383 -442 -381 -151 1 -293 62 -405 174 -65 66 -133 201 -151 302 -43 250 69
    525 281 690 37 29 179 102 234 121 344 114 711 0 959 -296 26 -31 47 -59 47
    -63 0 -4 11 -22 24 -39 92 -125 166 -376 166 -565 0 -375 -177 -714 -475 -912
    -200 -132 -389 -200 -614 -221 -458 -42 -898 151 -1202 528 -106 130 -220 341
    -273 503 -123 373 -90 843 84 1192 145 291 424 573 715 721 259 132 520 196
    806 197 556 1 1037 -253 1346 -710 120 -177 210 -402 263 -655 17 -82 51 -249
    77 -370 25 -121 49 -240 54 -265 4 -25 21 -108 38 -185 17 -77 64 -309 106
    -515 41 -206 82 -409 90 -450 9 -41 28 -140 44 -220 l28 -145 118 0 c117 0
    119 0 132 25 19 36 93 200 93 206 0 2 18 43 40 90 22 47 40 88 40 90 0 2 25
    57 56 121 31 65 78 168 104 228 54 125 200 452 254 568 20 42 36 79 36 81 0 2
    20 46 44 97 24 52 80 175 124 274 44 99 101 224 126 278 25 54 46 100 46 102
    0 4 44 99 117 255 38 81 51 107 103 225 145 327 297 537 451 623 66 38 161 72
    199 72 32 0 36 7 45 83 l7 57 -570 0 -571 0 -10 -37 c-6 -21 -11 -50 -11 -65
    0 -24 4 -27 48 -33 112 -15 180 -55 219 -128 35 -66 16 -293 -38 -442 -19 -50
    -81 -208 -95 -242 -8 -17 -14 -34 -14 -37 0 -3 -11 -29 -24 -58 -13 -29 -63
    -141 -111 -248 -48 -107 -111 -248 -141 -313 -30 -64 -54 -119 -54 -122 0 -3
    -22 -53 -50 -111 -27 -58 -50 -108 -50 -109 0 -2 -15 -36 -34 -77 -18 -40 -43
    -93 -54 -118 -198 -440 -203 -449 -214 -383 -3 16 -35 161 -72 323 -37 162
    -94 423 -126 580 -125 605 -145 686 -210 842 -100 244 -297 530 -491 714 -313
    296 -678 477 -1124 559 -87 16 -479 29 -580 19z"/>
  </g>
</svg>
